<svg width="500" height="125" viewBox="0 0 500 125" fill="none" xmlns="http://www.w3.org/2000/svg">
<path d="M25.2068 61.9973C25.2068 60.9425 26.0619 60.0874 27.1167 60.0874H29.0311C30.0859 60.0874 30.941 60.9425 30.941 61.9973V63.9117C30.941 64.9665 30.0859 65.8217 29.0311 65.8217H27.1167C26.0619 65.8217 25.2068 64.9665 25.2068 63.9117V61.9973Z" fill="white"/>
<path fill-rule="evenodd" clip-rule="evenodd" d="M11.1818 47.7348C11.1818 46.8771 11.8771 46.1818 12.7348 46.1818H36.3408L42.8635 37.4848C43.6314 36.461 42.9009 35 41.6211 35H1.55303C0.695314 35 0 35.6953 0 36.553V89.3559C0 90.2137 0.695315 90.909 1.55303 90.909H54.3559C55.2137 90.909 55.909 90.2137 55.909 89.3559V49.2878C55.909 48.0081 54.4479 47.2776 53.4241 48.0454L44.7272 54.5681V78.1742C44.7272 79.0319 44.0319 79.7272 43.1741 79.7272H11.1818V47.7348Z" fill="white"/>
<path d="M102.11 66.0604H95.0143C94.6712 66.0604 94.3931 66.3385 94.3931 66.6816V79.4649C94.3931 79.808 94.1149 80.0862 93.7719 80.0862H87.7102C87.3671 80.0862 87.089 79.808 87.089 79.4649V44.9392C87.089 44.5961 87.3671 44.318 87.7102 44.318H104.633C107.141 44.3665 109.066 44.6739 110.409 45.2401C111.768 45.8063 112.916 46.6395 113.854 47.7395C114.631 48.6454 115.246 49.6484 115.699 50.7485C116.152 51.8486 116.378 53.1023 116.378 54.5097C116.378 56.2084 115.949 57.8827 115.092 59.5328C114.473 60.7117 113.564 61.6421 112.365 62.3241C111.865 62.6084 111.844 63.4467 112.329 63.7572C113.216 64.3258 113.886 65.0207 114.34 65.842C115.035 67.0553 115.383 68.9157 115.383 71.4232V73.8255C115.383 75.4594 115.448 76.5676 115.577 77.15C115.746 77.952 116.111 78.5704 116.671 79.0053C116.829 79.128 116.936 79.3103 116.936 79.5105C116.936 79.8284 116.678 80.0862 116.361 80.0862H109.179C108.901 80.0862 108.657 79.9023 108.584 79.6349C108.422 79.0473 108.303 78.5587 108.225 78.1691C108.031 77.1661 107.925 76.1389 107.909 75.0873L107.861 71.7629C107.828 69.4819 107.408 67.9612 106.599 67.2009C105.806 66.4405 104.31 66.0604 102.11 66.0604ZM106.647 59.5571C108.136 58.8776 108.88 57.5349 108.88 55.5289C108.88 53.3611 108.16 51.9052 106.72 51.161C105.911 50.7404 104.698 50.5301 103.08 50.5301H95.0143C94.6712 50.5301 94.3931 50.8082 94.3931 51.1513V59.5183C94.3931 59.8613 94.6712 60.1395 95.0143 60.1395H102.862C104.544 60.1395 105.806 59.9453 106.647 59.5571Z" fill="white"/>
<path d="M144.219 72.321C144.59 72.321 144.88 72.6448 144.797 73.0061C144.486 74.3535 143.709 75.7186 142.464 77.1014C140.199 79.6736 137.029 80.9597 132.952 80.9597C129.587 80.9597 126.618 79.8759 124.046 77.7081C121.474 75.5403 120.188 72.0137 120.188 67.1281C120.188 62.5499 121.345 59.0394 123.658 56.5966C125.987 54.1538 129.005 52.9325 132.709 52.9325C134.909 52.9325 136.891 53.345 138.654 54.17C140.418 54.9951 141.874 56.2973 143.022 58.0769C144.058 59.6461 144.729 61.466 145.036 63.5367C145.198 64.639 145.273 66.182 145.261 68.1656C145.259 68.5053 144.982 68.7782 144.642 68.7782H127.797C127.445 68.7782 127.161 69.0711 127.192 69.4218C127.393 71.7343 128.213 73.3802 129.652 74.3594C130.606 75.0226 131.755 75.3543 133.097 75.3543C134.521 75.3543 135.678 74.9498 136.567 74.141C136.978 73.7719 137.347 73.2815 137.676 72.6698C137.79 72.4593 138.006 72.321 138.245 72.321H144.219ZM137.411 64.2162C137.769 64.2162 138.056 63.9135 138.01 63.5583C137.814 62.0528 137.277 60.8889 136.398 60.0667C135.411 59.1122 134.181 58.635 132.709 58.635C131.108 58.635 129.862 59.1365 128.972 60.1395C128.221 61.002 127.709 62.1277 127.436 63.5167C127.364 63.885 127.655 64.2162 128.031 64.2162H137.411Z" fill="white"/>
<path d="M168.162 54.8495C170.085 56.0812 171.247 58.136 171.65 61.0136C171.7 61.3764 171.412 61.6925 171.046 61.6925H165.37C165.053 61.6925 164.791 61.4527 164.729 61.1419C164.601 60.5074 164.378 59.9872 164.061 59.5813C163.301 58.6431 162.006 58.1739 160.178 58.1739C158.674 58.1739 157.598 58.4085 156.951 58.8776C156.32 59.3468 156.005 59.8968 156.005 60.5277C156.005 61.3204 156.344 61.8947 157.024 62.2506C157.703 62.6227 160.106 63.2617 164.231 64.1676C166.981 64.8147 169.044 65.7935 170.419 67.1038C171.777 68.4304 172.457 70.0885 172.457 72.0784C172.457 74.6991 171.478 76.8426 169.521 78.5089C167.579 80.159 164.57 80.984 160.494 80.984C156.336 80.984 153.262 80.1104 151.273 78.3633C149.451 76.7361 148.471 74.7026 148.33 72.2628C148.31 71.9202 148.59 71.6416 148.933 71.6416H154.773C155.088 71.6416 155.35 71.8777 155.405 72.1877C155.573 73.1333 155.861 73.8249 156.271 74.2623C157.129 75.1844 158.714 75.6455 161.028 75.6455C162.387 75.6455 163.462 75.4433 164.255 75.0388C165.064 74.6344 165.468 74.0277 165.468 73.2189C165.468 72.4424 165.145 71.8519 164.498 71.4474C163.851 71.043 161.448 70.3474 157.291 69.3606C154.298 68.6164 152.187 67.6862 150.957 66.57C149.728 65.4699 149.113 63.8845 149.113 61.8138C149.113 59.371 150.067 57.2761 151.976 55.5289C153.901 53.7656 156.603 52.8839 160.081 52.8839C163.381 52.8839 166.075 53.5391 168.162 54.8495Z" fill="white"/>
<path d="M199.659 56.9849C201.892 59.7836 203.008 63.0918 203.008 66.9097C203.008 70.7923 201.892 74.1167 199.659 76.883C197.427 79.6332 194.038 81.0083 189.492 81.0083C184.946 81.0083 181.557 79.6332 179.324 76.883C177.092 74.1167 175.976 70.7923 175.976 66.9097C175.976 63.0918 177.092 59.7836 179.324 56.9849C181.557 54.1862 184.946 52.7869 189.492 52.7869C194.038 52.7869 197.427 54.1862 199.659 56.9849ZM189.467 58.635C187.445 58.635 185.884 59.3549 184.784 60.7946C183.7 62.2183 183.158 64.2566 183.158 66.9097C183.158 69.5628 183.7 71.6092 184.784 73.049C185.884 74.4888 187.445 75.2087 189.467 75.2087C191.49 75.2087 193.043 74.4888 194.127 73.049C195.21 71.6092 195.752 69.5628 195.752 66.9097C195.752 64.2566 195.21 62.2183 194.127 60.7946C193.043 59.3549 191.49 58.635 189.467 58.635Z" fill="white"/>
<path d="M208.128 44.9392C208.128 44.5961 208.406 44.318 208.749 44.318H214.423C214.766 44.318 215.044 44.5961 215.044 44.9392V79.4649C215.044 79.808 214.766 80.0862 214.423 80.0862H208.749C208.406 80.0862 208.128 79.808 208.128 79.4649V44.9392Z" fill="white"/>
<path d="M219.516 54.4671C219.37 54.0624 219.67 53.6362 220.1 53.6362H226.513C226.791 53.6362 227.035 53.821 227.11 54.0886L231.9 71.0517C232.07 71.6531 232.921 71.6555 233.094 71.0551L237.991 54.0851C238.068 53.8192 238.311 53.6362 238.588 53.6362H244.662C245.092 53.6362 245.392 54.0632 245.246 54.4681L236.158 79.6756C236.069 79.922 235.835 80.0862 235.573 80.0862H229.143C228.881 80.0862 228.647 79.9215 228.558 79.6747L219.516 54.4671Z" fill="white"/>
<path d="M255.966 53.6362C256.309 53.6362 256.587 53.9143 256.587 54.2574V79.4649C256.587 79.808 256.309 80.0862 255.966 80.0862H250.196C249.853 80.0862 249.574 79.808 249.574 79.4649V54.2574C249.574 53.9143 249.853 53.6362 250.196 53.6362H255.966ZM255.966 44.0996C256.309 44.0996 256.587 44.3777 256.587 44.7208V49.8604C256.587 50.2035 256.309 50.4816 255.966 50.4816H250.196C249.853 50.4816 249.574 50.2035 249.574 49.8604V44.7208C249.574 44.3777 249.853 44.0996 250.196 44.0996H255.966Z" fill="white"/>
<path d="M275.757 58.7563C273.412 58.7563 271.802 59.7512 270.929 61.741C270.476 62.7926 270.249 64.1353 270.249 65.7692V79.4649C270.249 79.808 269.971 80.0862 269.628 80.0862H263.979C263.636 80.0862 263.358 79.808 263.358 79.4649V54.3059C263.358 53.9628 263.636 53.6847 263.979 53.6847H269.409C269.753 53.6847 270.031 53.9628 270.031 54.3059V55.4602C270.031 56.0775 270.866 56.3375 271.264 55.866C271.708 55.3412 272.138 54.9215 272.554 54.6068C273.978 53.5391 275.782 53.0052 277.966 53.0052C280.7 53.0052 282.932 53.7251 284.663 55.1649C286.41 56.5885 287.284 58.9585 287.284 62.2749V79.4649C287.284 79.808 287.006 80.0862 286.663 80.0862H280.819C280.476 80.0862 280.198 79.808 280.198 79.4649V63.9978C280.198 62.6065 280.012 61.5388 279.64 60.7946C278.961 59.4358 277.666 58.7563 275.757 58.7563Z" fill="white"/>
<path d="M301.164 84.721C301.908 85.3519 303.162 85.6673 304.925 85.6673C307.417 85.6673 309.083 84.8342 309.924 83.1679C310.474 82.1002 310.749 80.3046 310.749 77.7809C310.749 77.3109 310.087 77.1177 309.789 77.4819C309.411 77.9453 309.019 78.328 308.614 78.6302C307.239 79.6817 305.451 80.2075 303.251 80.2075C299.854 80.2075 297.136 79.0184 295.098 76.6404C293.075 74.2461 292.064 71.0107 292.064 66.934C292.064 63.0029 293.043 59.7027 295 57.0334C296.958 54.348 299.732 53.0052 303.324 53.0052C304.65 53.0052 305.807 53.2075 306.794 53.6119C307.807 54.0309 308.703 54.6613 309.482 55.5029C309.917 55.9733 310.87 55.693 310.87 55.0522V54.2574C310.87 53.9143 311.149 53.6362 311.492 53.6362H316.971C317.314 53.6362 317.592 53.9143 317.592 54.2574V78.7273C317.592 82.1407 317.018 84.7129 315.869 86.4439C313.896 89.4205 310.11 90.9088 304.513 90.9088C301.132 90.9088 298.373 90.2455 296.238 88.919C294.288 87.7077 293.134 85.95 292.776 83.646C292.72 83.2863 293.008 82.9738 293.372 82.9738H299.728C300.015 82.9738 300.26 83.1726 300.353 83.4445C300.547 84.0128 300.817 84.4383 301.164 84.721ZM299.999 71.0592C300.938 73.2917 302.62 74.4079 305.047 74.4079C306.664 74.4079 308.031 73.8012 309.148 72.5879C310.264 71.3585 310.822 69.4091 310.822 66.7398C310.822 64.2323 310.288 62.3234 309.22 61.013C308.169 59.7027 306.753 59.0475 304.974 59.0475C302.547 59.0475 300.873 60.188 299.951 62.469C299.465 63.6823 299.223 65.1787 299.223 66.9582C299.223 68.4951 299.482 69.8621 299.999 71.0592Z" fill="white"/>
<path d="M353.651 67.2252H346.677C346.334 67.2252 346.056 67.5033 346.056 67.8464V79.4649C346.056 79.808 345.778 80.0862 345.435 80.0862H339.252C338.909 80.0862 338.631 79.808 338.631 79.4649V44.9392C338.631 44.5961 338.909 44.318 339.252 44.318H354.21C357.801 44.318 360.664 45.2401 362.8 47.0843C364.935 48.9286 366.003 51.7839 366.003 55.6502C366.003 59.8725 364.935 62.8573 362.8 64.6044C360.664 66.3516 357.615 67.2252 353.651 67.2252ZM357.146 59.7755C358.116 58.9181 358.602 57.5592 358.602 55.6988C358.602 53.8384 358.108 52.5118 357.122 51.7191C356.151 50.9265 354.784 50.5301 353.021 50.5301H346.677C346.334 50.5301 346.056 50.8082 346.056 51.1513V60.4404C346.056 60.7835 346.334 61.0616 346.677 61.0616H353.021C354.784 61.0616 356.159 60.6329 357.146 59.7755Z" fill="white"/>
<path d="M381.188 71.0772C381.365 71.675 382.214 71.6687 382.382 71.0683L387.133 54.09C387.208 53.8217 387.453 53.6362 387.731 53.6362H393.738C394.166 53.6362 394.465 54.0582 394.324 54.462L385.537 79.6494C383.79 84.6643 382.407 87.7704 381.388 88.9675C380.368 90.1808 378.33 90.7875 375.273 90.7875C374.658 90.7875 374.164 90.7794 373.792 90.7632C373.524 90.7632 373.16 90.7506 372.699 90.7255C372.372 90.7076 372.118 90.4358 372.118 90.1084V85.8144C372.118 85.4578 372.418 85.1744 372.774 85.1942L372.992 85.2063C373.671 85.2386 374.318 85.2144 374.933 85.1335C375.548 85.0526 376.065 84.8666 376.486 84.5754C376.89 84.3004 377.262 83.7261 377.602 82.8525C377.958 81.9789 378.104 81.4451 378.039 81.2509L368.623 54.4634C368.481 54.0593 368.781 53.6362 369.209 53.6362H375.561C375.836 53.6362 376.078 53.8172 376.156 54.081L381.188 71.0772Z" fill="white"/>
<path d="M410.157 75.2061C410.516 75.1821 410.822 75.4668 410.822 75.8273V79.7302C410.822 80.0643 410.558 80.3386 410.224 80.351L407.546 80.4501C404.279 80.5634 402.046 79.9972 400.849 78.7515C400.072 77.9588 399.684 76.7374 399.684 75.0873V59.426C399.684 59.083 399.406 58.8048 399.063 58.8048H396.617C396.274 58.8048 395.996 58.5267 395.996 58.1836V54.5C395.996 54.157 396.274 53.8788 396.617 53.8788H399.063C399.406 53.8788 399.684 53.6007 399.684 53.2576V47.1232C399.684 46.7801 399.962 46.5019 400.305 46.5019H405.906C406.249 46.5019 406.527 46.7801 406.527 47.1232V53.2576C406.527 53.6007 406.805 53.8788 407.148 53.8788H410.201C410.544 53.8788 410.822 54.157 410.822 54.5V58.1836C410.822 58.5267 410.544 58.8048 410.201 58.8048H407.148C406.805 58.8048 406.527 59.083 406.527 59.426V72.7821C406.527 73.866 406.665 74.5454 406.94 74.8204C407.215 75.0793 408.056 75.2087 409.463 75.2087C409.674 75.2087 409.892 75.2087 410.119 75.2087C410.131 75.2078 410.144 75.207 410.157 75.2061Z" fill="white"/>
<path d="M439.165 64.5559V79.4649C439.165 79.808 438.887 80.0862 438.544 80.0862H432.725C432.382 80.0862 432.104 79.808 432.104 79.4649V63.9978C432.104 62.5742 431.861 61.4256 431.376 60.552C430.745 59.3225 429.548 58.7078 427.784 58.7078C425.956 58.7078 424.565 59.3225 423.61 60.552C422.672 61.7653 422.203 63.5044 422.203 65.7692V79.4649C422.203 79.808 421.925 80.0862 421.582 80.0862H415.933C415.59 80.0862 415.311 79.808 415.311 79.4649V45.0605C415.311 44.7175 415.59 44.4393 415.933 44.4393H421.582C421.925 44.4393 422.203 44.7175 422.203 45.0605V54.9935C422.203 55.6112 423.065 55.8888 423.497 55.4463C424.168 54.7576 424.893 54.2351 425.673 53.8788C427 53.2641 428.391 52.9567 429.847 52.9567C431.481 52.9567 432.961 53.2398 434.288 53.806C435.63 54.3722 436.73 55.2377 437.588 56.4025C438.316 57.3893 438.761 58.4085 438.922 59.46C439.084 60.4954 439.165 62.194 439.165 64.5559Z" fill="white"/>
<path d="M467.702 56.9849C469.934 59.7836 471.051 63.0918 471.051 66.9097C471.051 70.7923 469.934 74.1167 467.702 76.883C465.469 79.6332 462.08 81.0083 457.534 81.0083C452.989 81.0083 449.599 79.6332 447.367 76.883C445.134 74.1167 444.018 70.7923 444.018 66.9097C444.018 63.0918 445.134 59.7836 447.367 56.9849C449.599 54.1862 452.989 52.7869 457.534 52.7869C462.08 52.7869 465.469 54.1862 467.702 56.9849ZM457.51 58.635C455.488 58.635 453.927 59.3549 452.827 60.7946C451.743 62.2183 451.201 64.2566 451.201 66.9097C451.201 69.5628 451.743 71.6092 452.827 73.049C453.927 74.4888 455.488 75.2087 457.51 75.2087C459.532 75.2087 461.085 74.4888 462.169 73.049C463.253 71.6092 463.795 69.5628 463.795 66.9097C463.795 64.2566 463.253 62.2183 462.169 60.7946C461.085 59.3549 459.532 58.635 457.51 58.635Z" fill="white"/>
<path d="M488.474 58.7563C486.128 58.7563 484.518 59.7512 483.645 61.741C483.192 62.7926 482.965 64.1353 482.965 65.7692V79.4649C482.965 79.808 482.687 80.0862 482.344 80.0862H476.695C476.352 80.0862 476.074 79.808 476.074 79.4649V54.3059C476.074 53.9628 476.352 53.6847 476.695 53.6847H482.126C482.469 53.6847 482.747 53.9628 482.747 54.3059V55.4602C482.747 56.0775 483.582 56.3375 483.98 55.866C484.424 55.3412 484.854 54.9215 485.271 54.6068C486.694 53.5391 488.498 53.0052 490.682 53.0052C493.416 53.0052 495.648 53.7251 497.379 55.1649C499.126 56.5885 500 58.9585 500 62.2749V79.4649C500 79.808 499.722 80.0862 499.379 80.0862H493.535C493.192 80.0862 492.914 79.808 492.914 79.4649V63.9978C492.914 62.6065 492.728 61.5388 492.356 60.7946C491.677 59.4358 490.383 58.7563 488.474 58.7563Z" fill="white"/>
</svg>
